<svg id="visual" viewBox="0 0 900 150" width="900" height="150" xmlns="http://www.w3.org/2000/svg" xmlns:xlink="http://www.w3.org/1999/xlink" version="1.1"><rect x="0" y="0" width="900" height="150" fill="#000000"></rect><path d="M0 129L4.8 124.8C9.7 120.7 19.3 112.3 29 105.8C38.7 99.3 48.3 94.7 58 94.2C67.7 93.7 77.3 97.3 87 97.5C96.7 97.7 106.3 94.3 116 85.5C125.7 76.7 135.3 62.3 145 59.3C154.7 56.3 164.3 64.7 174 69.7C183.7 74.7 193.3 76.3 203 74.7C212.7 73 222.3 68 232 76.3C241.7 84.7 251.3 106.3 261 109.7C270.7 113 280.3 98 290 96.3C299.7 94.7 309.3 106.3 319 107.2C328.7 108 338.3 98 348 84C357.7 70 367.3 52 377 47.2C386.7 42.3 396.3 50.7 406 54.7C415.7 58.7 425.3 58.3 435.2 65.8C445 73.3 455 88.7 464.8 81.8C474.7 75 484.3 46 494 36.5C503.7 27 513.3 37 523 38C532.7 39 542.3 31 552 41C561.7 51 571.3 79 581 86.7C590.7 94.3 600.3 81.7 610 77.5C619.7 73.3 629.3 77.7 639 71.8C648.7 66 658.3 50 668 49.7C677.7 49.3 687.3 64.7 697 64.3C706.7 64 716.3 48 726 50.3C735.7 52.7 745.3 73.3 755 80.2C764.7 87 774.3 80 784 68.8C793.7 57.7 803.3 42.3 813 43.3C822.7 44.3 832.3 61.7 842 72.7C851.7 83.7 861.3 88.3 871 85C880.7 81.7 890.3 70.3 895.2 64.7L900 59L900 151L895.2 151C890.3 151 880.7 151 871 151C861.3 151 851.7 151 842 151C832.3 151 822.7 151 813 151C803.3 151 793.7 151 784 151C774.3 151 764.7 151 755 151C745.3 151 735.7 151 726 151C716.3 151 706.7 151 697 151C687.3 151 677.7 151 668 151C658.3 151 648.7 151 639 151C629.3 151 619.7 151 610 151C600.3 151 590.7 151 581 151C571.3 151 561.7 151 552 151C542.3 151 532.7 151 523 151C513.3 151 503.7 151 494 151C484.3 151 474.7 151 464.8 151C455 151 445 151 435.2 151C425.3 151 415.7 151 406 151C396.3 151 386.7 151 377 151C367.3 151 357.7 151 348 151C338.3 151 328.7 151 319 151C309.3 151 299.7 151 290 151C280.3 151 270.7 151 261 151C251.3 151 241.7 151 232 151C222.3 151 212.7 151 203 151C193.3 151 183.7 151 174 151C164.3 151 154.7 151 145 151C135.3 151 125.7 151 116 151C106.3 151 96.7 151 87 151C77.3 151 67.7 151 58 151C48.3 151 38.7 151 29 151C19.3 151 9.7 151 4.8 151L0 151Z" fill="#FFFFFF" stroke-linecap="round" stroke-linejoin="miter"></path></svg>